<svg width="74" height="74" viewBox="0 0 74 74" fill="none" xmlns="http://www.w3.org/2000/svg">
<path d="M36.9999 71.6844L8.62402 55.9193V2.3125L36.9999 18.0807L65.3758 2.31558V55.9193L36.9999 71.6844Z" fill="white"/>
<path d="M8.62408 10.9149L2.3125 8.62402V62.2216L37 71.6844L8.62408 55.9193V10.9149ZM65.379 10.9149V55.9193L37 71.6844L71.6844 62.2247V8.62402L65.379 10.9149Z" fill="#BBD8FF"/>
<path d="M37 71.6844L2.3125 62.2216V8.62402L8.62408 10.9149V55.9193L37 71.6844ZM37 71.6844L65.379 55.9193V10.9149L71.6844 8.62402V62.2247L37 71.6844Z" stroke="#092F63" stroke-width="1.66667" stroke-linecap="round" stroke-linejoin="round"/>
<path d="M36.9999 71.6844L8.62402 55.9193V2.3125L36.9999 18.0807M36.9999 71.6844L65.3758 55.9193V2.31558L36.9999 18.0807M36.9999 71.6844V18.0807" stroke="#092F63" stroke-width="1.66667" stroke-linecap="round" stroke-linejoin="round"/>
</svg>
