<svg width="57" height="75" viewBox="0 0 57 75" fill="none" xmlns="http://www.w3.org/2000/svg">
<path fill-rule="evenodd" clip-rule="evenodd" d="M10.4111 39.6651C1.30021 25.5664 11.4245 6.97266 28.2147 6.97266C45.0048 6.97266 55.1291 25.5664 46.0182 39.6651L35.615 55.7812H20.8144L10.4111 39.6651ZM14.2694 58.4959L4.55412 43.4489C-7.55506 24.7064 5.90216 0 28.2147 0C50.5272 0 63.9797 24.7064 51.8752 43.4489L42.16 58.4959V65.0781C42.16 67.5438 41.1805 69.9085 39.437 71.652C37.6935 73.3955 35.3288 74.375 32.8631 74.375H23.5662C21.1005 74.375 18.7358 73.3955 16.9923 71.652C15.2488 69.9085 14.2694 67.5438 14.2694 65.0781V58.4959ZM21.242 62.7539V65.0781C21.242 65.6945 21.4869 66.2857 21.9228 66.7216C22.3586 67.1575 22.9498 67.4023 23.5662 67.4023H32.8631C33.4795 67.4023 34.0707 67.1575 34.5066 66.7216C34.9424 66.2857 35.1873 65.6945 35.1873 65.0781V62.7539H21.242Z" fill="#FDFCFC"/>
</svg>
